<svg version="1" xmlns="http://www.w3.org/2000/svg" width="493.333" height="493.333" viewBox="0 0 370.000000 370.000000"><path d="M165.5 7c-2.7.4-7.2 1-9.8 1.4-2.7.4-10.1 2-16.4 3.6C72.4 29.3 20.8 84.9 7.9 153.5c-3.6 18.8-3.3 50 .5 68.2C22.5 289 73.6 343 139.3 360c35.4 9.2 74.1 7.4 107.9-5.1 49.2-18.1 88.6-57.7 106.9-107.3 3-7.9 6.3-20 7.4-26.5.3-1.9.7-3.7.9-4 2.6-4.3 2.8-45.5.3-60.1-11.6-66.6-56.9-120-120.1-141.5-5.5-1.9-11.2-3.6-12.6-3.9-1.4-.3-5.7-1.2-9.7-2-3.9-.9-10.7-2-15-2.5-9.4-1-32.8-1.1-39.8-.1zm37 4c67.4 7.5 122.6 49.8 147 112.7 8.1 21.2 11.5 41.3 11 65.3-.2 9.1-.7 18.1-1 20-.6 3.7-2.3 12.8-3.1 17-.9 4.7-5.6 19.5-8.1 25.5-24.8 59.9-78.1 100.9-141.8 109.2-7.5.9-34 1-42.1.1-56.9-6.5-110.3-43.7-135.9-94.5-8.4-16.7-13.2-30.9-16.5-48.8-.5-2.8-1.2-6.4-1.5-8-1.4-7-1.3-36.2.1-46.5 7.7-53.9 38.1-100.3 83.8-127.6 21.5-12.9 48-22 70-24.1 3.4-.3 6.2-.7 6.4-.8.9-.8 23.1-.4 31.7.5z"/><path d="M166 15c-12.2 1.7-14.9 2.2-24 4.6C74.9 37.1 25 93.4 15.5 162.4c-1.4 9.9-1.4 39.3-.1 46.1.4 1.6 1.4 6.8 2.3 11.5 3 15.8 10.9 36.2 19.9 51.6 3.8 6.4 11 17.1 12.4 18.4.3.3 1.8 2.1 3.4 4 19.8 24.4 49.8 44.7 80.1 54.1 9.6 2.9 22.4 5.8 30 6.6 11.4 1.3 40.3.9 48-.6 3.9-.8 7.7-1.5 8.5-1.6 10.5-2 27.8-8 39-13.4 33.2-16.3 59.9-41.9 77.3-74.3 8.5-15.9 16.7-41.9 18.4-58.2 1-9 1-36.5.1-43.2-3.1-21-9.5-41.3-18.6-58.4-15.2-28.5-42-55.4-70.2-70.7-13.7-7.4-33.8-14.6-47-16.9-1.4-.2-4.7-.9-7.5-1.5-6.1-1.3-37.9-2-45.5-.9zm38 3.1c23.1 3.2 41.8 9.1 60 18.7 47.4 25.2 81.1 74.1 87.7 127.3 1.5 12 .7 43-1.2 49.9-.2.8-.7 3.1-1 5-1.8 11.1-9.9 33.2-16.5 45.5-8.4 15.4-21 31.6-33.2 43-27.3 25.1-57 38.9-95.8 44.4-6.3.9-36.4.8-40.5-.2-1.1-.3-4-.8-6.5-1.2-9-1.3-24.7-5.8-34.4-9.8-56.8-23-95.3-72.4-104.1-133.7-1.3-9.1-1.4-38.1-.2-44 .3-1.4.8-4.1 1.1-6 2-13.6 7.9-31.6 15-46 28.4-57.5 86-93.5 149.6-93.7 7.4 0 16.4.3 20 .8z"/><path d="M266.5 77.5c-7.7 2.2-18.4 7.9-25 13.4-3.3 2.8-8.9 7.5-12.5 10.4-13.2 10.9-27.3 26.8-37.2 41.9-4.7 7.3-5.3 7.8-10.3 9.3-6.1 1.7-13.7 7.1-14.1 9.9-.3 2.3 3.9 6.6 6.5 6.6 1.7 0 1.5.8-2.2 7.4l-4.2 7.3-5.5-.1c-6.7-.1-11.6 2.2-21.3 10.3-14.4 11.9-16.5 13.3-27.2 18.5-17.6 8.7-33.1 12.5-49.3 12.2-11.3-.3-15.9-1.4-22.4-5.5-20.4-13-4.4-44.1 35.6-69 12.9-8.1 26.5-13.1 36.6-13.6 5.4-.2 11.8 1.5 13.1 3.7.4.6-1.3 3.6-3.7 6.7-5.9 7.6-12.1 20.2-12 24.3.1 4.6 2.6 4.7 8.6.3 9.4-6.9 15.2-17.5 14.2-26-.2-2.2-.5-5.3-.5-6.8 0-2-.4-2.7-1.4-2.3-.8.3-3.7-.1-6.4-1-6.6-2.2-19.2-1.5-27.9 1.6-18.4 6.5-38.2 19.1-52.5 33.4-13.3 13.3-17 20-17 30.7 0 6.6.3 8.1 2.8 11.8 8 12.1 30.3 18 51.7 13.6 10.9-2.2 22-6.2 32.5-11.9l8.3-4.4-2.4 4.6c-3.8 7.1-2.9 12.2 2.1 12.2 4.9 0 21.6-13.3 33-26.3 3.3-3.7 6.1-6.3 6.3-5.7.2.5-.6 3.8-1.7 7.2-3.6 11.1-4.8 17.9-3.9 22.5.7 3.3 1.4 4.3 2.9 4.3 2.3 0 2.5-1.5.3-2.4-2.4-.9-1.3-10 2.6-21.1 3.3-9.2 14.1-31.7 16.6-34.6 1.3-1.5 5.6-2 6.8-.8.3.2-1.3 4.9-3.4 10.3-2.2 5.3-4.7 12.4-5.5 15.7-1.8 6.7-2.1 18.2-.7 21.9 3.6 9.3 15.6 8.3 26-2 5.7-5.7 5.4-7.3-.4-2.1-7.5 7-14.2 8.8-18.2 5.1-2.9-2.8-3.6-5.9-2.8-13.9.5-6 3.1-17.9 4.1-18.9.2-.2 8.6-2.3 18.7-4.7 38.8-9.2 76.7-23.9 95.6-37.1 3.4-2.4 6.8-4.4 7.5-4.4 2.5 0 12 7.3 15 11.6 4.2 6 5.5 9.8 5.6 16.3.2 11.9-7.6 20.1-25.2 26.5-3.7 1.3-6.7 2.3-6.7 2.1 0-.2-1.9.3-4.2.9-4 1.2-10.6 1.3-16.8.5-4-.6-3.6 3 1.4 13.7 10.3 21.7 19.2 30.2 28 26.8 2.8-1.1 1.7-2-1.9-1.6-6.7.8-12.7-6.2-19.8-22.9-5-11.8-5-12.5 1.6-13.4 7.6-1 8.1-1.1 16-3.5 22.6-6.7 33.9-18.2 32.5-32.7-.9-9.2-7.3-17.9-17.7-24.4l-5.1-3.1 4.5-5.1c9.3-10.2 11.4-21.3 6.2-31.9-4.7-9.5-16.4-19.1-27.2-22.3-6.5-1.8-20.1-1.8-27 0zm29.4 3.4c10.7 4.3 20.7 13.4 22.9 20.9 3 9.8-.5 20.8-9.2 29.1-5.3 5.2-7.1 4.9-3-.4 8.4-11 7.6-25.8-1.9-35.7-11.6-12-30.9-15.1-50.2-7.9-2.9 1.1-2.9 1-1-.5 2.7-2.2 10-5.4 15.5-7 6.8-1.8 20.4-1.1 26.9 1.5zm-9.7 5.1c8.8 2.3 18.8 9.8 21.4 15.9 3.6 8.4 1.4 18.3-6 26.6l-3.4 3.8-4.9-1.3c-23.2-5.9-55.5-4.8-67.8 2.4-4.9 2.9-7.1 5.9-7.9 10.6-.7 4.8.2 8.3 3.1 11.6 1.8 2.1 2.3 2.3 1.7.9-.3-1.1-1.3-3.7-2.1-5.8-3.3-9.2 2.9-16.4 16.8-19.3 9.8-2 31.8-2.6 39.4-1.1 1.1.2 5 1 8.6 1.6 6.4 1.2 9.8 2.5 8.9 3.4-2.3 2.1-15.3 9.7-23.6 13.7-18.9 9.1-43.4 16-63 17.6-4.3.3-9.1.7-10.6.9-1.5.1-3 0-3.2-.3-.7-.7 11.3-24.2 17-33.2 7.7-12.1 20.9-29.4 26.2-34.1 6.4-5.7 20-12.6 28.2-14.3 7.2-1.4 14.7-1.3 21.2.4zm-72.4 35.7c-2.8 3.2-13.4 21.6-19.3 33.3-3.1 6.3-5.8 11.6-6 11.8-.8.9-5.5 1.1-5.9.3-1.2-1.8 13-24 24.9-38.9 3.6-4.5 6.8-8.2 7.2-8.2.3 0-.1.8-.9 1.7zM301 139c-4.9 3.9-19.6 12.7-27.5 16.4-16.2 7.7-47.3 19.1-57.2 21-2.5.5-27.5 6.6-29 7.1-1.4.5-.1-3.9 3.1-10l2.1-4 9-.6c25-1.8 44.6-6.4 70.1-16.5 11.3-4.5 24.7-11.3 27.4-14 .8-.7 2.1-1.4 3-1.4 1 0 .7.7-1 2zm-171 9.5c0 4.7-1.7 9.5-5.1 14.5-3 4.4-9.4 9.8-10.4 8.8-1.4-1.4 5.7-17.3 10.8-24.6 3.3-4.6 4.7-4.2 4.7 1.3zm51.9 10.2c-4.4 8-5.1 8.6-8.8 7.8-3.9-.8-4.1-3.5-.3-7.1 2.5-2.4 9.6-6.3 11.5-6.4.5 0-.6 2.6-2.4 5.7zm-20.1 29.5c1.7 2.2-.2 5.1-9 13.9-7.9 7.8-15.6 14.3-22 18.3-2.5 1.7-2.7 1.7-3.8-.3-1.9-3.7 4.7-14.2 15.4-24.4 7.7-7.4 16.7-10.8 19.4-7.5z"/><path d="M289.2 154.7c.1 1-4.3 8.5-9.9 16.8-10.5 15.8-23.8 37.6-26.5 43.5-2.7 6-2.7 9 .2 9 1.4 0 2.2-1.1 3.1-4.3 2.3-8.6 10.4-23 31.5-55.7 3-4.6 5.3-8.9 5.1-9.5-.7-1.9-3.6-1.7-3.5.2z"/></svg>